<?xml version="1.0" ?>
<!-- Uploaded to: SVG Repo, www.svgrepo.com, Generator: SVG Repo Mixer Tools -->
<svg fill="#000000" width="800px" height="800px" viewBox="0 0 64 64" xmlns="http://www.w3.org/2000/svg">
<g id="heart">
<path d="M8.7,14.4561a1,1,0,0,0-1.4141,0l-.7668.7669-.7669-.7669a1,1,0,0,0-1.414,1.414l.7669.7671-.7669.7671a1,1,0,1,0,1.414,1.4141l.7669-.767.7668.767A1,1,0,1,0,8.7,17.4043l-.767-.7671L8.7,15.87A1,1,0,0,0,8.7,14.4561Z"/>
<path d="M55,9a3,3,0,1,0,3,3A3.0033,3.0033,0,0,0,55,9Zm0,4a1,1,0,1,1,1-1A1.0009,1.0009,0,0,1,55,13Z"/>
<circle cx="61" cy="46" r="1"/>
<path d="M34,10a24,24,0,1,0,4.93,47.4818,4.7761,4.7761,0,0,0,.5455,1.2819L40.71,60.7163a4.85,4.85,0,0,0,6.6845,1.5078l5.6133-3.5473a3.5192,3.5192,0,0,0,1.0947-4.8477L51.7588,50.12A23.9828,23.9828,0,0,0,34,10Zm-.417,40.1973c-1.7451-.6421-4.6343-3.6768-4.6343-5.8682a2.3279,2.3279,0,0,1,4.12-1.4873,1,1,0,0,0,1.538.0005,2.3286,2.3286,0,0,1,4.1211,1.4868C38.7275,46.5137,35.3623,49.5562,33.583,50.1973ZM51.94,56.9863l-5.6133,3.5469a2.8474,2.8474,0,0,1-3.9248-.8853L41.167,57.6953a2.8484,2.8484,0,0,1,.8857-3.9248L44.72,52.0851l1.0683,1.6908A1,1,0,0,0,47.48,52.7075L45.877,50.1714l-2.4043-3.8042a1.5,1.5,0,0,1,2.5361-1.6026L52.4111,54.897A1.5161,1.5161,0,0,1,51.94,56.9863Zm-2.4377-10.438c.0128-.0266.0354-.0451.0461-.0732a7,7,0,0,0-9.3907-8.8716l-2.4258,1.0777a9.0813,9.0813,0,0,1-7.4628,0l-2.4253-1.0781A7,7,0,1,0,22.1567,50.397l2.4263,1.0781A23.0656,23.0656,0,0,0,34,53.4976a22.7989,22.7989,0,0,0,6.3257-.9017,4.8185,4.8185,0,0,0-1.5225,2.87A21.9984,21.9984,0,1,1,56,34a21.89,21.89,0,0,1-5.3585,14.3521Z"/>
<path d="M42,20a8,8,0,1,0,8,8A8.0092,8.0092,0,0,0,42,20Zm0,14a6,6,0,1,1,6-6A6.0066,6.0066,0,0,1,42,34Z"/>
<circle cx="40.5" cy="25.5" r="1.5"/>
<path d="M26,20a8,8,0,1,0,8,8A8.0092,8.0092,0,0,0,26,20Zm0,14a6,6,0,1,1,6-6A6.0066,6.0066,0,0,1,26,34Z"/>
<circle cx="28.5" cy="28.5" r="1.5"/>
</g>
</svg>